<svg xmlns="http://www.w3.org/2000/svg" version="1.1" xmlns:xlink="http://www.w3.org/1999/xlink" xmlns:svgjs="http://svgjs.dev/svgjs" viewBox="0 0 12.814495090715548 7.087838575996031"><g transform="matrix(0.8103752194674962,0,0,0.8103752194674962,6.407247545357774,5.421279404224906)"><rect width="14.473022896274847" height="14.473022896274847" x="-7.236511448137423" y="-9.553166833355789" fill="#ffffff"></rect><g transform="matrix(1,0,0,1,0,0)"><path d=" M -2.522891316310423 -3.698531719068855 L -2.3926025797644446 -3.873313998288611 L -1.6882875673542719 -3.6301754301969598 L -1.806623208804289 -3.471428222465255 L -1.9437661101025603 -3.5200268296828767 L -2.056722858759395 -3.3684954041207953 L -1.9703806116189593 -3.251747743078957 L -2.0893139078237746 -3.09219878177285 L -2.522891316310423 -3.698531719068855 M -2.0665213721736317 -3.5728675870001463 L -2.304612015326547 -3.671770800512302 L -2.1436188355425823 -3.4694413759022176 L -2.0665213721736317 -3.5728675870001463 M -1.4078492002751037 -3.831261184976596 Q -1.4632746765712683 -3.7901635381176417 -1.5280715550720605 -3.7726174691404157 Q -1.5928684335728527 -3.7550714001631897 -1.6597171449933776 -3.7646369519724363 Q -1.7265658564139026 -3.774202503781683 -1.7888599399084524 -3.812043581482696 Q -1.851154023403002 -3.8498846591837084 -1.9029727955295093 -3.91976895538322 Q -1.9476441508109812 -3.9800140383138336 -1.963272209690408 -4.048100481719707 Q -1.978900268569835 -4.1161869251255805 -1.9680259902509816 -4.184628506573148 Q -1.9571517119321284 -4.253070088020716 -1.9202177268545184 -4.314069110523433 Q -1.8832837417769082 -4.375068133026149 -1.821432123301478 -4.42093072444846 Q -1.7443184171502928 -4.478110059208744 -1.65694538098004 -4.491232656146535 Q -1.5695723448097874 -4.504355253084326 -1.4961636683880637 -4.469153460146883 L -1.5465238895706717 -4.293626117198729 Q -1.5884084717488678 -4.314855384161061 -1.6373339789857118 -4.310322753399845 Q -1.6862594862225557 -4.30579012263863 -1.7240130715257405 -4.277796073328907 Q -1.7521274435600267 -4.25694944086422 -1.7670835559739893 -4.228430768008336 Q -1.7820396683879518 -4.1999120951524525 -1.7844194737342371 -4.167024612328227 Q -1.7867992790805225 -4.1341371295039995 -1.7754880350337394 -4.099574783546092 Q -1.7641767909869566 -4.065012437588184 -1.739756450099752 -4.0320784589194485 Q -1.7147404911421276 -3.998341212478305 -1.6848502634789622 -3.9781775250614624 Q -1.6549600358157968 -3.9580138376446197 -1.62309713598374 -3.951139565734641 Q -1.5912342361516834 -3.9442652938246625 -1.559095359028773 -3.951289721009741 Q -1.5269564819058625 -3.958314148194819 -1.4972355743267598 -3.980352016800345 Q -1.4594819890235753 -4.008346066110067 -1.4389384994648846 -4.052834435789704 Q -1.418395009906194 -4.097322805469339 -1.4158922148999515 -4.152709952147578 L -1.3027247815202228 -4.000089075390024 Q -1.3235060841722448 -3.893801082370657 -1.4078492002751037 -3.831261184976596 M -1.4120125312156406 -4.130688415995219 L -1.5172406094011126 -4.052662448770247 L -1.60062713925986 -4.165119936907393 L -1.366072949716671 -4.339040413469924 L -1.1409293190980527 -4.035405195499631 L -1.27025543045577 -3.9395106861620715 L -1.4120125312156406 -4.130688415995219 M -1.045699954942342 -4.076146112030076 L -1.2811579715598866 -4.745966627101488 L -0.9736065801327312 -4.854078336139967 Q -0.9245493029725714 -4.871323148624632 -0.8760750480259368 -4.866103320335438 Q -0.8276007930793022 -4.860883492046244 -0.7856387986114036 -4.838004658590929 Q -0.7436768041435049 -4.815125825135614 -0.7125753791506575 -4.7794193640478175 Q -0.6814739541578101 -4.743712902960022 -0.6665505587383882 -4.70125949003296 Q -0.6529536873562483 -4.662579713810527 -0.6516726191159529 -4.622750593004718 Q -0.6503915508756575 -4.582921472198909 -0.6616435851336713 -4.545576569935595 Q -0.6728956193916852 -4.508231667672281 -0.6954571998143354 -4.475921064322416 L -0.4673901299581509 -4.279435920743533 L -0.6692796936557315 -4.208466884748949 L -0.8595014007072121 -4.372676208986097 L -0.9340307256236088 -4.3464773592497785 L -0.8617351655917429 -4.14081415884757 L -1.045699954942342 -4.076146112030076 M -0.9904079972080913 -4.506856919196455 L -0.8743686685407903 -4.547647533342875 Q -0.8630477584269073 -4.55162710545472 -0.8556549365730655 -4.563765729142658 Q -0.8482621147192237 -4.575904352830596 -0.8468242730564951 -4.594429541395167 Q -0.8453864313937665 -4.612954729959738 -0.8533455756174582 -4.635596550187504 Q -0.8616363508504703 -4.659181779591427 -0.8751272405015921 -4.671929167418792 Q -0.8886181301527138 -4.684676555246158 -0.9033954239385598 -4.689021850215064 Q -0.9181727177244057 -4.69336714518397 -0.9294936278382886 -4.689387573072124 L -1.0408159106248052 -4.650255113972307 L -0.9904079972080913 -4.506856919196455 M -0.3969094114195472 -4.270287019920797 L -0.486966817580099 -4.974552355994946 L -0.29354183091184693 -4.999286432334815 L -0.20348442475129513 -4.295021096260666 L -0.3969094114195472 -4.270287019920797 M 0.5128833512740467 -4.81205662716041 L 0.30942513111063746 -4.826914374228444 L 0.2700958006364284 -4.288348497325303 L 0.07561367842140487 -4.3025507555521 L 0.11494300889561393 -4.841116632455242 L -0.08951255548428261 -4.8560472116167475 L -0.07713109959425385 -5.025595728419589 L 0.5252648071640755 -4.981605143963251 L 0.5128833512740467 -4.81205662716041 M 1.0807478977977252 -4.2463218266627205 L 1.025691949721562 -4.085483887788104 L 0.5469625551888803 -4.249356297944213 L 0.7769021030363855 -4.921091219126435 L 1.2471165478639405 -4.760133535633181 L 1.1920605997877773 -4.599295596758564 L 0.9063367319046352 -4.697100869223278 L 0.8739508800951273 -4.602490316944092 L 1.1180461049754276 -4.518934819275562 L 1.066876459116405 -4.369450146674448 L 0.822781234236105 -4.453005644342978 L 0.7865090802094563 -4.347041825790289 L 1.0807478977977252 -4.2463218266627205 M 1.2752473359494367 -4.367909345868457 Q 1.3119951644908256 -4.421524615125383 1.3675384472697716 -4.459226654037596 Q 1.4230817300487177 -4.496928692949809 1.4906826055977387 -4.512424551267624 Q 1.5582834811467596 -4.527920409585438 1.631204087998373 -4.514917137059169 Q 1.7041246948499864 -4.5019138645329 1.7742369700321206 -4.45385901182493 Q 1.8583717002506814 -4.396193188575366 1.897032896412487 -4.31817035915129 Q 1.9356940925742925 -4.240147529727214 1.926638968952893 -4.161490014280812 L 1.743809046727213 -4.158293212918239 Q 1.752873285167345 -4.194512538995631 1.743406125867217 -4.22403579922864 Q 1.7339389665670895 -4.25355905946165 1.714670867186136 -4.275857946120981 Q 1.6954027678051826 -4.298156832780312 1.6731318098061516 -4.313421315405197 Q 1.6384880973632148 -4.337166066155017 1.604001868389843 -4.3407992481207565 Q 1.5695156394164713 -4.3444324300864965 1.538166576014509 -4.333185820649883 Q 1.5068175126125465 -4.321939211213269 1.4803248449232136 -4.300089987915801 Q 1.453832177233881 -4.278240764618334 1.435175587359022 -4.251020704841741 Q 1.4142575926508467 -4.220501243880106 1.4041090048265232 -4.186237470515633 Q 1.3939604170021995 -4.151973697151159 1.396300466202948 -4.118242788925349 Q 1.398640515403696 -4.084511880699537 1.4153181813147024 -4.0548959144015955 Q 1.4319958472257088 -4.025279948103653 1.463340158483604 -4.0037966021871485 Q 1.4856111164826349 -3.988532119562264 1.5135124100487232 -3.9797135132472636 Q 1.5414137036148114 -3.9708949069322634 1.5711269333870528 -3.9735639847696427 Q 1.6008401631592941 -3.976233062607022 1.628829605380949 -3.995844057587406 L 1.706272437695092 -3.8275924373183474 Q 1.6595523186405126 -3.796572597287717 1.5982166594155776 -3.7937553455342057 Q 1.5368810001906428 -3.790938093780695 1.4747159332600812 -3.809905287920019 Q 1.4125508663295196 -3.8288724820593427 1.3622349982576352 -3.863358905767415 Q 1.2970718248530635 -3.908021651225411 1.2608526935103725 -3.9710349397031672 Q 1.2246335621676816 -4.034048228180923 1.2151341115325882 -4.104207051130224 Q 1.2056346608974948 -4.174365874079526 1.2212190573402777 -4.243092699901138 Q 1.2368034537830608 -4.31181952572275 1.2752473359494367 -4.367909345868457 M 2.6160834482607553 -3.5845040428444657 L 2.0570374699091656 -3.1468196884417594 L 1.936828386657718 -3.3003604853129707 L 2.155722445786932 -3.4717354860509317 L 2.0090057185364474 -3.6591339971039996 L 1.7901116594072335 -3.4877589963660385 L 1.669902576155786 -3.6412997932372497 L 2.228948554507376 -4.078984147639956 L 2.3491576377588235 -3.925443350768745 L 2.1428617978600677 -3.7639316594257743 L 2.289578525110552 -3.5765331483727065 L 2.495874365009308 -3.738044839715677 L 2.6160834482607553 -3.5845040428444657" fill="#197f0f" fill-rule="nonzero"></path></g><g transform="matrix(1,0,0,1,0,0)"><path d=" M -5.253483642578125 0.0024999999999999467 L -5.253483642578125 0.35749999999999993 L -5.287983642578125 0.35749999999999993 L -5.287983642578125 0.19149999999999992 L -5.498483642578124 0.19149999999999992 L -5.498483642578124 0.35749999999999993 L -5.533483642578124 0.35749999999999993 L -5.533483642578124 0.0024999999999999467 L -5.498483642578124 0.0024999999999999467 L -5.498483642578124 0.16049999999999992 L -5.287983642578125 0.16049999999999992 L -5.287983642578125 0.0024999999999999467 L -5.253483642578125 0.0024999999999999467 M -5.05374560546875 0.0024999999999999467 L -5.024245605468749 0.0024999999999999467 L -4.8767456054687495 0.35749999999999993 L -4.913745605468749 0.35749999999999993 L -4.95974560546875 0.24649999999999994 L -5.119245605468749 0.24649999999999994 L -5.16474560546875 0.35749999999999993 L -5.202245605468749 0.35749999999999993 L -5.05374560546875 0.0024999999999999467 M -4.96774560546875 0.21899999999999992 L -5.03924560546875 0.04349999999999993 L -5.11174560546875 0.21899999999999992 L -4.96774560546875 0.21899999999999992 M -4.824982910156249 0.35749999999999993 L -4.824982910156249 0.0024999999999999467 L -4.67498291015625 0.0024999999999999467 Q -4.651982910156249 0.0024999999999999467 -4.632982910156249 0.0119999999999999 Q -4.61398291015625 0.021499999999999908 -4.599732910156249 0.037749999999999895 Q -4.58548291015625 0.05399999999999994 -4.577732910156249 0.07374999999999993 Q -4.5699829101562495 0.09349999999999992 -4.5699829101562495 0.11399999999999993 Q -4.5699829101562495 0.13949999999999993 -4.57973291015625 0.16199999999999992 Q -4.589482910156249 0.18449999999999991 -4.60723291015625 0.19999999999999993 Q -4.624982910156249 0.2154999999999999 -4.648982910156249 0.22049999999999992 L -4.5619829101562495 0.35749999999999993 L -4.60148291015625 0.35749999999999993 L -4.68498291015625 0.22649999999999992 L -4.789982910156249 0.22649999999999992 L -4.789982910156249 0.35749999999999993 L -4.824982910156249 0.35749999999999993 M -4.789982910156249 0.19549999999999992 L -4.67398291015625 0.19549999999999992 Q -4.65298291015625 0.19549999999999992 -4.637482910156249 0.1839999999999999 Q -4.62198291015625 0.17249999999999993 -4.613482910156249 0.15374999999999991 Q -4.60498291015625 0.13499999999999993 -4.60498291015625 0.11399999999999993 Q -4.60498291015625 0.09249999999999992 -4.614732910156249 0.07424999999999993 Q -4.6244829101562495 0.05599999999999994 -4.64073291015625 0.0447499999999999 Q -4.656982910156249 0.03349999999999992 -4.67698291015625 0.03349999999999992 L -4.789982910156249 0.03349999999999992 L -4.789982910156249 0.19549999999999992 M -4.508716308593749 0.0024999999999999467 L -4.38171630859375 0.31399999999999995 L -4.2552163085937496 0.0024999999999999467 L -4.218716308593749 0.0024999999999999467 L -4.36571630859375 0.35749999999999993 L -4.39771630859375 0.35749999999999993 L -4.54521630859375 0.0024999999999999467 L -4.508716308593749 0.0024999999999999467 M -3.9284582519531246 0.3264999999999999 L -3.9284582519531246 0.35749999999999993 L -4.166958251953124 0.35749999999999993 L -4.166958251953124 0.0024999999999999467 L -3.9329582519531243 0.0024999999999999467 L -3.9329582519531243 0.03349999999999992 L -4.131958251953124 0.03349999999999992 L -4.131958251953124 0.16149999999999992 L -3.9584582519531244 0.16149999999999992 L -3.9584582519531244 0.19099999999999992 L -4.131958251953124 0.19099999999999992 L -4.131958251953124 0.3264999999999999 L -3.9284582519531246 0.3264999999999999 M -3.6562180175781247 0.06899999999999995 Q -3.6637180175781245 0.06049999999999994 -3.6737180175781243 0.05374999999999991 Q -3.6837180175781246 0.04699999999999993 -3.6962180175781243 0.041999999999999926 Q -3.7087180175781245 0.03699999999999992 -3.7229680175781246 0.03399999999999992 Q -3.7372180175781247 0.030999999999999917 -3.7532180175781247 0.030999999999999917 Q -3.7997180175781247 0.030999999999999917 -3.8214680175781246 0.048749999999999905 Q -3.8432180175781245 0.06649999999999995 -3.8432180175781245 0.09699999999999992 Q -3.8432180175781245 0.11799999999999991 -3.8329680175781244 0.12999999999999992 Q -3.8227180175781243 0.14199999999999993 -3.8007180175781246 0.1494999999999999 Q -3.7787180175781243 0.15699999999999992 -3.7447180175781245 0.16499999999999992 Q -3.7067180175781242 0.17299999999999993 -3.6792180175781244 0.1839999999999999 Q -3.6517180175781245 0.19499999999999992 -3.6367180175781244 0.2137499999999999 Q -3.6217180175781243 0.23249999999999993 -3.6217180175781243 0.26449999999999996 Q -3.6217180175781243 0.2889999999999999 -3.6312180175781243 0.30699999999999994 Q -3.6407180175781244 0.32499999999999996 -3.6577180175781243 0.3369999999999999 Q -3.6747180175781247 0.3489999999999999 -3.6982180175781245 0.35474999999999995 Q -3.7217180175781244 0.36049999999999993 -3.7497180175781244 0.36049999999999993 Q -3.7772180175781243 0.36049999999999993 -3.8024680175781245 0.35474999999999995 Q -3.8277180175781247 0.3489999999999999 -3.8502180175781247 0.33774999999999994 Q -3.8727180175781246 0.3264999999999999 -3.8922180175781245 0.30899999999999994 L -3.8747180175781244 0.2804999999999999 Q -3.8652180175781243 0.2904999999999999 -3.8519680175781246 0.2992499999999999 Q -3.8387180175781244 0.30799999999999994 -3.8224680175781245 0.31499999999999995 Q -3.8062180175781246 0.32199999999999995 -3.7874680175781243 0.32574999999999993 Q -3.7687180175781245 0.3294999999999999 -3.7487180175781245 0.3294999999999999 Q -3.7062180175781245 0.3294999999999999 -3.6824680175781244 0.31399999999999995 Q -3.6587180175781246 0.29849999999999993 -3.6587180175781246 0.2679999999999999 Q -3.6587180175781246 0.24599999999999994 -3.6707180175781247 0.23274999999999993 Q -3.6827180175781247 0.21949999999999992 -3.7067180175781242 0.21099999999999994 Q -3.7307180175781243 0.20249999999999993 -3.7657180175781244 0.19449999999999992 Q -3.8027180175781243 0.18599999999999992 -3.8282180175781244 0.17549999999999993 Q -3.8537180175781245 0.16499999999999992 -3.8664680175781245 0.14774999999999994 Q -3.8792180175781246 0.13049999999999992 -3.8792180175781246 0.10199999999999992 Q -3.8792180175781246 0.06899999999999995 -3.8629680175781247 0.0462499999999999 Q -3.8467180175781244 0.02349999999999991 -3.8182180175781246 0.011749999999999927 Q -3.7897180175781244 -5.551115123125783e-17 -3.7527180175781245 -5.551115123125783e-17 Q -3.7292180175781247 -5.551115123125783e-17 -3.7089680175781243 0.004749999999999921 Q -3.6887180175781245 0.009499999999999897 -3.6714680175781247 0.018499999999999905 Q -3.6542180175781245 0.027499999999999913 -3.6392180175781244 0.040999999999999925 L -3.6562180175781247 0.06899999999999995 M -3.3079589843749995 0.03349999999999992 L -3.4344589843749995 0.03349999999999992 L -3.4344589843749995 0.35749999999999993 L -3.4694589843749997 0.35749999999999993 L -3.4694589843749997 0.03349999999999992 L -3.5959589843749993 0.03349999999999992 L -3.5959589843749993 0.0024999999999999467 L -3.3079589843749995 0.0024999999999999467 L -3.3079589843749995 0.03349999999999992 M -3.254216308593749 0.35749999999999993 L -3.254216308593749 0.0024999999999999467 L -3.2192163085937495 0.0024999999999999467 L -3.2192163085937495 0.35749999999999993 L -3.254216308593749 0.35749999999999993 M -3.0944733886718745 0.06699999999999995 L -3.0944733886718745 0.35749999999999993 L -3.129473388671874 0.35749999999999993 L -3.129473388671874 0.0024999999999999467 L -3.1004733886718743 0.0024999999999999467 L -2.8674733886718746 0.29849999999999993 L -2.8674733886718746 0.002999999999999947 L -2.8324733886718745 0.002999999999999947 L -2.8324733886718745 0.35749999999999993 L -2.8649733886718742 0.35749999999999993 L -3.0944733886718745 0.06699999999999995 M -2.6002370605468745 0.35999999999999993 Q -2.6357370605468744 0.35999999999999993 -2.6662370605468744 0.34474999999999995 Q -2.6967370605468743 0.3294999999999999 -2.7192370605468743 0.30349999999999994 Q -2.7417370605468743 0.2774999999999999 -2.7539870605468746 0.24549999999999994 Q -2.7662370605468745 0.2134999999999999 -2.7662370605468745 0.17949999999999994 Q -2.7662370605468745 0.14349999999999993 -2.7539870605468746 0.11124999999999993 Q -2.7417370605468743 0.0789999999999999 -2.7197370605468745 0.05399999999999994 Q -2.6977370605468742 0.028999999999999915 -2.6677370605468744 0.014499999999999902 Q -2.637737060546874 -5.551115123125783e-17 -2.6022370605468743 -5.551115123125783e-17 Q -2.5497370605468745 -5.551115123125783e-17 -2.516737060546874 0.021499999999999908 Q -2.4837370605468743 0.04299999999999993 -2.4667370605468744 0.0774999999999999 L -2.4937370605468745 0.09549999999999992 Q -2.5107370605468744 0.062499999999999944 -2.539237060546874 0.04699999999999993 Q -2.5677370605468743 0.03149999999999992 -2.6027370605468745 0.03149999999999992 Q -2.6322370605468746 0.03149999999999992 -2.6559870605468743 0.04399999999999993 Q -2.6797370605468744 0.05649999999999994 -2.6967370605468743 0.0774999999999999 Q -2.7137370605468742 0.09849999999999992 -2.7224870605468743 0.12499999999999992 Q -2.7312370605468743 0.1514999999999999 -2.7312370605468743 0.17999999999999994 Q -2.7312370605468743 0.20999999999999994 -2.7212370605468745 0.23674999999999993 Q -2.7112370605468743 0.26349999999999996 -2.6927370605468743 0.28424999999999995 Q -2.6742370605468744 0.30499999999999994 -2.6499870605468745 0.3167499999999999 Q -2.625737060546874 0.3284999999999999 -2.5977370605468746 0.3284999999999999 Q -2.5652370605468744 0.3284999999999999 -2.5362370605468745 0.3122499999999999 Q -2.507237060546874 0.29599999999999993 -2.4807370605468746 0.2619999999999999 L -2.4807370605468746 0.29899999999999993 Q -2.531237060546874 0.35999999999999993 -2.6002370605468745 0.35999999999999993 M -2.486237060546874 0.20999999999999994 L -2.5652370605468744 0.20999999999999994 L -2.5652370605468744 0.1829999999999999 L -2.4567370605468746 0.1829999999999999 L -2.4567370605468746 0.35749999999999993 L -2.486237060546874 0.35749999999999993 L -2.486237060546874 0.20999999999999994 M -2.1132329101562495 0.35999999999999993 Q -2.1487329101562493 0.35999999999999993 -2.1792329101562493 0.34474999999999995 Q -2.2097329101562493 0.3294999999999999 -2.2322329101562493 0.30349999999999994 Q -2.254732910156249 0.2774999999999999 -2.2669829101562495 0.24549999999999994 Q -2.2792329101562494 0.2134999999999999 -2.2792329101562494 0.17949999999999994 Q -2.2792329101562494 0.14349999999999993 -2.2669829101562495 0.11124999999999993 Q -2.254732910156249 0.0789999999999999 -2.2327329101562494 0.05399999999999994 Q -2.210732910156249 0.028999999999999915 -2.1807329101562494 0.014499999999999902 Q -2.150732910156249 -5.551115123125783e-17 -2.1152329101562493 -5.551115123125783e-17 Q -2.0627329101562495 -5.551115123125783e-17 -2.029732910156249 0.021499999999999908 Q -1.9967329101562492 0.04299999999999993 -1.9797329101562493 0.0774999999999999 L -2.0067329101562494 0.09549999999999992 Q -2.0237329101562493 0.062499999999999944 -2.052232910156249 0.04699999999999993 Q -2.0807329101562493 0.03149999999999992 -2.1157329101562494 0.03149999999999992 Q -2.1452329101562495 0.03149999999999992 -2.168982910156249 0.04399999999999993 Q -2.1927329101562494 0.05649999999999994 -2.2097329101562493 0.0774999999999999 Q -2.226732910156249 0.09849999999999992 -2.2354829101562492 0.12499999999999992 Q -2.2442329101562493 0.1514999999999999 -2.2442329101562493 0.17999999999999994 Q -2.2442329101562493 0.20999999999999994 -2.2342329101562495 0.23674999999999993 Q -2.2242329101562492 0.26349999999999996 -2.2057329101562493 0.28424999999999995 Q -2.1872329101562493 0.30499999999999994 -2.1629829101562494 0.3167499999999999 Q -2.138732910156249 0.3284999999999999 -2.1107329101562495 0.3284999999999999 Q -2.0782329101562493 0.3284999999999999 -2.0492329101562494 0.3122499999999999 Q -2.020232910156249 0.29599999999999993 -1.9937329101562493 0.2619999999999999 L -1.9937329101562493 0.29899999999999993 Q -2.044232910156249 0.35999999999999993 -2.1132329101562495 0.35999999999999993 M -1.9992329101562494 0.20999999999999994 L -2.0782329101562493 0.20999999999999994 L -2.0782329101562493 0.1829999999999999 L -1.9697329101562493 0.1829999999999999 L -1.9697329101562493 0.35749999999999993 L -1.9992329101562494 0.35749999999999993 L -1.9992329101562494 0.20999999999999994 M -1.7539812011718743 0.35999999999999993 Q -1.7914812011718744 0.35999999999999993 -1.8219812011718743 0.3449999999999999 Q -1.8524812011718743 0.3299999999999999 -1.8744812011718743 0.3042499999999999 Q -1.8964812011718744 0.2784999999999999 -1.9084812011718744 0.2462499999999999 Q -1.9204812011718744 0.2139999999999999 -1.9204812011718744 0.17999999999999994 Q -1.9204812011718744 0.14449999999999993 -1.9079812011718742 0.11224999999999993 Q -1.8954812011718742 0.0799999999999999 -1.8727312011718742 0.05474999999999991 Q -1.8499812011718744 0.029499999999999915 -1.8194812011718744 0.01474999999999993 Q -1.7889812011718742 -5.551115123125783e-17 -1.7534812011718743 -5.551115123125783e-17 Q -1.7159812011718742 -5.551115123125783e-17 -1.6854812011718743 0.015499999999999903 Q -1.6549812011718743 0.030999999999999917 -1.6332312011718741 0.05699999999999994 Q -1.6114812011718742 0.08299999999999991 -1.5994812011718742 0.11499999999999994 Q -1.5874812011718742 0.14699999999999994 -1.5874812011718742 0.18049999999999994 Q -1.5874812011718742 0.21599999999999991 -1.5999812011718744 0.24824999999999992 Q -1.6124812011718743 0.2804999999999999 -1.6349812011718743 0.3057499999999999 Q -1.6574812011718743 0.3309999999999999 -1.6879812011718742 0.3454999999999999 Q -1.7184812011718742 0.35999999999999993 -1.7539812011718743 0.35999999999999993 M -1.8854812011718742 0.17999999999999994 Q -1.8854812011718742 0.20899999999999994 -1.8759812011718742 0.23574999999999993 Q -1.8664812011718743 0.26249999999999996 -1.8489812011718743 0.28324999999999995 Q -1.8314812011718742 0.30399999999999994 -1.8072312011718743 0.3162499999999999 Q -1.7829812011718742 0.3284999999999999 -1.7539812011718743 0.3284999999999999 Q -1.7234812011718743 0.3284999999999999 -1.6992312011718742 0.3157499999999999 Q -1.6749812011718743 0.30299999999999994 -1.6577312011718743 0.28174999999999994 Q -1.6404812011718743 0.26049999999999995 -1.6314812011718742 0.23399999999999993 Q -1.6224812011718743 0.20749999999999993 -1.6224812011718743 0.17999999999999994 Q -1.6224812011718743 0.1509999999999999 -1.6319812011718744 0.12449999999999992 Q -1.6414812011718742 0.09799999999999992 -1.6592312011718744 0.0769999999999999 Q -1.6769812011718743 0.05599999999999994 -1.7009812011718743 0.04399999999999993 Q -1.7249812011718744 0.03199999999999992 -1.7539812011718743 0.03199999999999992 Q -1.7839812011718743 0.03199999999999992 -1.8082312011718742 0.04449999999999993 Q -1.8324812011718743 0.05699999999999994 -1.8497312011718743 0.07824999999999993 Q -1.8669812011718743 0.09949999999999992 -1.8762312011718743 0.12599999999999992 Q -1.8854812011718742 0.1524999999999999 -1.8854812011718742 0.17999999999999994 M -1.3777429199218743 0.35999999999999993 Q -1.4152429199218743 0.35999999999999993 -1.4457429199218743 0.3449999999999999 Q -1.4762429199218743 0.3299999999999999 -1.4982429199218743 0.3042499999999999 Q -1.5202429199218743 0.2784999999999999 -1.5322429199218743 0.2462499999999999 Q -1.5442429199218743 0.2139999999999999 -1.5442429199218743 0.17999999999999994 Q -1.5442429199218743 0.14449999999999993 -1.5317429199218742 0.11224999999999993 Q -1.5192429199218742 0.0799999999999999 -1.4964929199218742 0.05474999999999991 Q -1.4737429199218743 0.029499999999999915 -1.4432429199218744 0.01474999999999993 Q -1.4127429199218742 -5.551115123125783e-17 -1.3772429199218743 -5.551115123125783e-17 Q -1.3397429199218742 -5.551115123125783e-17 -1.3092429199218742 0.015499999999999903 Q -1.2787429199218743 0.030999999999999917 -1.2569929199218741 0.05699999999999994 Q -1.2352429199218742 0.08299999999999991 -1.2232429199218742 0.11499999999999994 Q -1.2112429199218742 0.14699999999999994 -1.2112429199218742 0.18049999999999994 Q -1.2112429199218742 0.21599999999999991 -1.2237429199218743 0.24824999999999992 Q -1.2362429199218743 0.2804999999999999 -1.2587429199218743 0.3057499999999999 Q -1.2812429199218742 0.3309999999999999 -1.3117429199218742 0.3454999999999999 Q -1.3422429199218742 0.35999999999999993 -1.3777429199218743 0.35999999999999993 M -1.5092429199218742 0.17999999999999994 Q -1.5092429199218742 0.20899999999999994 -1.4997429199218741 0.23574999999999993 Q -1.4902429199218743 0.26249999999999996 -1.4727429199218742 0.28324999999999995 Q -1.4552429199218742 0.30399999999999994 -1.4309929199218743 0.3162499999999999 Q -1.4067429199218742 0.3284999999999999 -1.3777429199218743 0.3284999999999999 Q -1.3472429199218743 0.3284999999999999 -1.3229929199218742 0.3157499999999999 Q -1.2987429199218743 0.30299999999999994 -1.2814929199218743 0.28174999999999994 Q -1.2642429199218743 0.26049999999999995 -1.2552429199218742 0.23399999999999993 Q -1.2462429199218743 0.20749999999999993 -1.2462429199218743 0.17999999999999994 Q -1.2462429199218743 0.1509999999999999 -1.2557429199218744 0.12449999999999992 Q -1.2652429199218742 0.09799999999999992 -1.2829929199218744 0.0769999999999999 Q -1.3007429199218743 0.05599999999999994 -1.3247429199218743 0.04399999999999993 Q -1.3487429199218743 0.03199999999999992 -1.3777429199218743 0.03199999999999992 Q -1.4077429199218743 0.03199999999999992 -1.4319929199218742 0.04449999999999993 Q -1.4562429199218743 0.05699999999999994 -1.4734929199218743 0.07824999999999993 Q -1.4907429199218742 0.09949999999999992 -1.4999929199218742 0.12599999999999992 Q -1.5092429199218742 0.1524999999999999 -1.5092429199218742 0.17999999999999994 M -1.1445046386718742 0.35749999999999993 L -1.1445046386718742 0.0024999999999999467 L -1.0240046386718742 0.0024999999999999467 Q -0.9675046386718742 0.0024999999999999467 -0.9297546386718742 0.02624999999999994 Q -0.8920046386718743 0.04999999999999993 -0.8730046386718742 0.09024999999999994 Q -0.8540046386718743 0.13049999999999992 -0.8540046386718743 0.17949999999999994 Q -0.8540046386718743 0.23349999999999993 -0.8747546386718742 0.2734999999999999 Q -0.8955046386718742 0.31349999999999995 -0.9337546386718742 0.3354999999999999 Q -0.9720046386718743 0.35749999999999993 -1.0240046386718742 0.35749999999999993 L -1.1445046386718742 0.35749999999999993 M -0.8890046386718742 0.17949999999999994 Q -0.8890046386718742 0.13699999999999993 -0.9047546386718742 0.10399999999999993 Q -0.9205046386718743 0.0709999999999999 -0.9505046386718742 0.05224999999999991 Q -0.9805046386718742 0.03349999999999992 -1.0240046386718742 0.03349999999999992 L -1.1095046386718743 0.03349999999999992 L -1.1095046386718743 0.3264999999999999 L -1.0240046386718742 0.3264999999999999 Q -0.9800046386718743 0.3264999999999999 -0.9500046386718742 0.30699999999999994 Q -0.9200046386718742 0.2874999999999999 -0.9045046386718743 0.2542499999999999 Q -0.8890046386718742 0.22099999999999992 -0.8890046386718742 0.17949999999999994 M -0.7512412109374992 0.06699999999999995 L -0.7512412109374992 0.35749999999999993 L -0.7862412109374992 0.35749999999999993 L -0.7862412109374992 0.0024999999999999467 L -0.7572412109374992 0.0024999999999999467 L -0.5242412109374992 0.29849999999999993 L -0.5242412109374992 0.002999999999999947 L -0.48924121093749917 0.002999999999999947 L -0.48924121093749917 0.35749999999999993 L -0.5217412109374993 0.35749999999999993 L -0.7512412109374992 0.06699999999999995 M -0.1610048828124992 0.3264999999999999 L -0.1610048828124992 0.35749999999999993 L -0.39950488281249924 0.35749999999999993 L -0.39950488281249924 0.0024999999999999467 L -0.1655048828124992 0.0024999999999999467 L -0.1655048828124992 0.03349999999999992 L -0.3645048828124992 0.03349999999999992 L -0.3645048828124992 0.16149999999999992 L -0.19100488281249922 0.16149999999999992 L -0.19100488281249922 0.19099999999999992 L -0.3645048828124992 0.19099999999999992 L -0.3645048828124992 0.3264999999999999 L -0.1610048828124992 0.3264999999999999 M 0.11123535156250075 0.06899999999999995 Q 0.10373535156250074 0.06049999999999994 0.09373535156250076 0.05374999999999991 Q 0.08373535156250075 0.04699999999999993 0.07123535156250074 0.041999999999999926 Q 0.05873535156250076 0.03699999999999992 0.04448535156250075 0.03399999999999992 Q 0.030235351562500762 0.030999999999999917 0.014235351562500748 0.030999999999999917 Q -0.03226464843749925 0.030999999999999917 -0.054014648437499244 0.048749999999999905 Q -0.07576464843749925 0.06649999999999995 -0.07576464843749925 0.09699999999999992 Q -0.07576464843749925 0.11799999999999991 -0.06551464843749925 0.12999999999999992 Q -0.055264648437499245 0.14199999999999993 -0.03326464843749925 0.1494999999999999 Q -0.011264648437499247 0.15699999999999992 0.022735351562500755 0.16499999999999992 Q 0.06073535156250076 0.17299999999999993 0.08823535156250076 0.1839999999999999 Q 0.11573535156250075 0.19499999999999992 0.13073535156250077 0.2137499999999999 Q 0.14573535156250078 0.23249999999999993 0.14573535156250078 0.26449999999999996 Q 0.14573535156250078 0.2889999999999999 0.13623535156250077 0.30699999999999994 Q 0.12673535156250076 0.32499999999999996 0.10973535156250075 0.3369999999999999 Q 0.09273535156250076 0.3489999999999999 0.06923535156250074 0.35474999999999995 Q 0.04573535156250075 0.36049999999999993 0.01773535156250075 0.36049999999999993 Q -0.009764648437499246 0.36049999999999993 -0.035014648437499254 0.35474999999999995 Q -0.06026464843749925 0.3489999999999999 -0.08276464843749926 0.33774999999999994 Q -0.10526464843749925 0.3264999999999999 -0.12476464843749925 0.30899999999999994 L -0.10726464843749925 0.2804999999999999 Q -0.09776464843749924 0.2904999999999999 -0.08451464843749926 0.2992499999999999 Q -0.07126464843749925 0.30799999999999994 -0.055014648437499244 0.31499999999999995 Q -0.038764648437499244 0.32199999999999995 -0.020014648437499255 0.32574999999999993 Q -0.0012646484374992384 0.3294999999999999 0.01873535156250075 0.3294999999999999 Q 0.06123535156250076 0.3294999999999999 0.08498535156250075 0.31399999999999995 Q 0.10873535156250075 0.29849999999999993 0.10873535156250075 0.2679999999999999 Q 0.10873535156250075 0.24599999999999994 0.09673535156250077 0.23274999999999993 Q 0.08473535156250075 0.21949999999999992 0.06073535156250076 0.21099999999999994 Q 0.03673535156250074 0.20249999999999993 0.0017353515625007643 0.19449999999999992 Q -0.035264648437499255 0.18599999999999992 -0.06076464843749925 0.17549999999999993 Q -0.08626464843749926 0.16499999999999992 -0.09901464843749924 0.14774999999999994 Q -0.11176464843749925 0.13049999999999992 -0.11176464843749925 0.10199999999999992 Q -0.11176464843749925 0.06899999999999995 -0.09551464843749925 0.0462499999999999 Q -0.07926464843749925 0.02349999999999991 -0.050764648437499255 0.011749999999999927 Q -0.022264648437499243 -5.551115123125783e-17 0.014735351562500748 -5.551115123125783e-17 Q 0.03823535156250074 -5.551115123125783e-17 0.05848535156250076 0.004749999999999921 Q 0.07873535156250075 0.009499999999999897 0.09598535156250076 0.018499999999999905 Q 0.11323535156250075 0.027499999999999913 0.12823535156250077 0.040999999999999925 L 0.11123535156250075 0.06899999999999995 M 0.4154826660156257 0.06899999999999995 Q 0.4079826660156257 0.06049999999999994 0.3979826660156257 0.05374999999999991 Q 0.3879826660156257 0.04699999999999993 0.37548266601562574 0.041999999999999926 Q 0.36298266601562573 0.03699999999999992 0.3487326660156257 0.03399999999999992 Q 0.3344826660156257 0.030999999999999917 0.3184826660156257 0.030999999999999917 Q 0.2719826660156257 0.030999999999999917 0.2502326660156257 0.048749999999999905 Q 0.22848266601562572 0.06649999999999995 0.22848266601562572 0.09699999999999992 Q 0.22848266601562572 0.11799999999999991 0.2387326660156257 0.12999999999999992 Q 0.24898266601562574 0.14199999999999993 0.2709826660156257 0.1494999999999999 Q 0.2929826660156257 0.15699999999999992 0.32698266601562576 0.16499999999999992 Q 0.36498266601562573 0.17299999999999993 0.39248266601562576 0.1839999999999999 Q 0.4199826660156257 0.19499999999999992 0.43498266601562574 0.2137499999999999 Q 0.44998266601562575 0.23249999999999993 0.44998266601562575 0.26449999999999996 Q 0.44998266601562575 0.2889999999999999 0.44048266601562575 0.30699999999999994 Q 0.43098266601562574 0.32499999999999996 0.4139826660156257 0.3369999999999999 Q 0.3969826660156257 0.3489999999999999 0.37348266601562574 0.35474999999999995 Q 0.3499826660156257 0.36049999999999993 0.32198266601562575 0.36049999999999993 Q 0.2944826660156257 0.36049999999999993 0.26923266601562573 0.35474999999999995 Q 0.24398266601562574 0.3489999999999999 0.22148266601562572 0.33774999999999994 Q 0.19898266601562573 0.3264999999999999 0.17948266601562574 0.30899999999999994 L 0.19698266601562572 0.2804999999999999 Q 0.20648266601562573 0.2904999999999999 0.21973266601562572 0.2992499999999999 Q 0.23298266601562573 0.30799999999999994 0.24923266601562571 0.31499999999999995 Q 0.26548266601562576 0.32199999999999995 0.2842326660156257 0.32574999999999993 Q 0.30298266601562573 0.3294999999999999 0.32298266601562575 0.3294999999999999 Q 0.36548266601562573 0.3294999999999999 0.38923266601562573 0.31399999999999995 Q 0.4129826660156257 0.29849999999999993 0.4129826660156257 0.2679999999999999 Q 0.4129826660156257 0.24599999999999994 0.4009826660156257 0.23274999999999993 Q 0.3889826660156257 0.21949999999999992 0.36498266601562573 0.21099999999999994 Q 0.3409826660156257 0.20249999999999993 0.30598266601562574 0.19449999999999992 Q 0.2689826660156257 0.18599999999999992 0.24348266601562574 0.17549999999999993 Q 0.21798266601562571 0.16499999999999992 0.20523266601562573 0.14774999999999994 Q 0.19248266601562572 0.13049999999999992 0.19248266601562572 0.10199999999999992 Q 0.19248266601562572 0.06899999999999995 0.20873266601562573 0.0462499999999999 Q 0.22498266601562572 0.02349999999999991 0.25348266601562575 0.011749999999999927 Q 0.2819826660156257 -5.551115123125783e-17 0.31898266601562575 -5.551115123125783e-17 Q 0.3424826660156257 -5.551115123125783e-17 0.3627326660156257 0.004749999999999921 Q 0.3829826660156257 0.009499999999999897 0.40023266601562574 0.018499999999999905 Q 0.4174826660156257 0.027499999999999913 0.43248266601562574 0.040999999999999925 L 0.4154826660156257 0.06899999999999995 M 0.5107299804687507 0.3979999999999999 L 0.5192299804687507 0.3559999999999999 L 0.5077299804687507 0.3559999999999999 L 0.5077299804687507 0.30849999999999994 L 0.5407299804687506 0.30849999999999994 L 0.5407299804687506 0.3559999999999999 L 0.5282299804687507 0.3979999999999999 L 0.5107299804687507 0.3979999999999999 M 0.9612202148437508 0.06899999999999995 Q 0.9537202148437507 0.06049999999999994 0.9437202148437508 0.05374999999999991 Q 0.9337202148437508 0.04699999999999993 0.9212202148437507 0.041999999999999926 Q 0.9087202148437508 0.03699999999999992 0.8944702148437508 0.03399999999999992 Q 0.8802202148437508 0.030999999999999917 0.8642202148437508 0.030999999999999917 Q 0.8177202148437508 0.030999999999999917 0.7959702148437507 0.048749999999999905 Q 0.7742202148437507 0.06649999999999995 0.7742202148437507 0.09699999999999992 Q 0.7742202148437507 0.11799999999999991 0.7844702148437508 0.12999999999999992 Q 0.7947202148437508 0.14199999999999993 0.8167202148437508 0.1494999999999999 Q 0.8387202148437507 0.15699999999999992 0.8727202148437507 0.16499999999999992 Q 0.9107202148437508 0.17299999999999993 0.9382202148437507 0.1839999999999999 Q 0.9657202148437507 0.19499999999999992 0.9807202148437508 0.2137499999999999 Q 0.9957202148437507 0.23249999999999993 0.9957202148437507 0.26449999999999996 Q 0.9957202148437507 0.2889999999999999 0.9862202148437508 0.30699999999999994 Q 0.9767202148437508 0.32499999999999996 0.9597202148437507 0.3369999999999999 Q 0.9427202148437508 0.3489999999999999 0.9192202148437507 0.35474999999999995 Q 0.8957202148437508 0.36049999999999993 0.8677202148437507 0.36049999999999993 Q 0.8402202148437508 0.36049999999999993 0.8149702148437508 0.35474999999999995 Q 0.7897202148437508 0.3489999999999999 0.7672202148437508 0.33774999999999994 Q 0.7447202148437507 0.3264999999999999 0.7252202148437508 0.30899999999999994 L 0.7427202148437507 0.2804999999999999 Q 0.7522202148437508 0.2904999999999999 0.7654702148437508 0.2992499999999999 Q 0.7787202148437508 0.30799999999999994 0.7949702148437507 0.31499999999999995 Q 0.8112202148437507 0.32199999999999995 0.8299702148437508 0.32574999999999993 Q 0.8487202148437507 0.3294999999999999 0.8687202148437507 0.3294999999999999 Q 0.9112202148437507 0.3294999999999999 0.9349702148437508 0.31399999999999995 Q 0.9587202148437508 0.29849999999999993 0.9587202148437508 0.2679999999999999 Q 0.9587202148437508 0.24599999999999994 0.9467202148437508 0.23274999999999993 Q 0.9347202148437508 0.21949999999999992 0.9107202148437508 0.21099999999999994 Q 0.8867202148437507 0.20249999999999993 0.8517202148437508 0.19449999999999992 Q 0.8147202148437508 0.18599999999999992 0.7892202148437507 0.17549999999999993 Q 0.7637202148437507 0.16499999999999992 0.7509702148437507 0.14774999999999994 Q 0.7382202148437508 0.13049999999999992 0.7382202148437508 0.10199999999999992 Q 0.7382202148437508 0.06899999999999995 0.7544702148437508 0.0462499999999999 Q 0.7707202148437508 0.02349999999999991 0.7992202148437507 0.011749999999999927 Q 0.8277202148437508 -5.551115123125783e-17 0.8647202148437507 -5.551115123125783e-17 Q 0.8882202148437508 -5.551115123125783e-17 0.9084702148437508 0.004749999999999921 Q 0.9287202148437508 0.009499999999999897 0.9459702148437508 0.018499999999999905 Q 0.9632202148437508 0.027499999999999913 0.9782202148437508 0.040999999999999925 L 0.9612202148437508 0.06899999999999995 M 1.0579675292968758 0.35749999999999993 L 1.0579675292968758 0.0024999999999999467 L 1.2049675292968758 0.0024999999999999467 Q 1.2279675292968757 0.0024999999999999467 1.2472175292968757 0.0119999999999999 Q 1.2664675292968757 0.021499999999999908 1.280467529296876 0.037749999999999895 Q 1.2944675292968757 0.05399999999999994 1.3024675292968757 0.07374999999999993 Q 1.3104675292968757 0.09349999999999992 1.3104675292968757 0.11399999999999993 Q 1.3104675292968757 0.14299999999999993 1.2977175292968757 0.16874999999999993 Q 1.2849675292968759 0.19449999999999992 1.2619675292968757 0.21049999999999994 Q 1.2389675292968758 0.22649999999999992 1.2079675292968757 0.22649999999999992 L 1.0929675292968757 0.22649999999999992 L 1.0929675292968757 0.35749999999999993 L 1.0579675292968758 0.35749999999999993 M 1.0929675292968757 0.19549999999999992 L 1.2064675292968758 0.19549999999999992 Q 1.2274675292968757 0.19549999999999992 1.2429675292968758 0.1839999999999999 Q 1.2584675292968757 0.17249999999999993 1.2669675292968758 0.15399999999999991 Q 1.2754675292968758 0.13549999999999993 1.2754675292968758 0.11399999999999993 Q 1.2754675292968758 0.09199999999999992 1.2654675292968758 0.0734999999999999 Q 1.2554675292968758 0.05499999999999994 1.2392175292968757 0.0442499999999999 Q 1.2229675292968758 0.03349999999999992 1.2034675292968757 0.03349999999999992 L 1.0929675292968757 0.03349999999999992 L 1.0929675292968757 0.19549999999999992 M 1.3697221679687508 0.35749999999999993 L 1.3697221679687508 0.0024999999999999467 L 1.5197221679687507 0.0024999999999999467 Q 1.5427221679687508 0.0024999999999999467 1.5617221679687507 0.0119999999999999 Q 1.5807221679687509 0.021499999999999908 1.5949721679687507 0.037749999999999895 Q 1.6092221679687508 0.05399999999999994 1.6169721679687508 0.07374999999999993 Q 1.6247221679687507 0.09349999999999992 1.6247221679687507 0.11399999999999993 Q 1.6247221679687507 0.13949999999999993 1.6149721679687508 0.16199999999999992 Q 1.6052221679687508 0.18449999999999991 1.587472167968751 0.19999999999999993 Q 1.5697221679687507 0.2154999999999999 1.5457221679687507 0.22049999999999992 L 1.6327221679687507 0.35749999999999993 L 1.5932221679687508 0.35749999999999993 L 1.509722167968751 0.22649999999999992 L 1.4047221679687507 0.22649999999999992 L 1.4047221679687507 0.35749999999999993 L 1.3697221679687508 0.35749999999999993 M 1.4047221679687507 0.19549999999999992 L 1.5207221679687508 0.19549999999999992 Q 1.5417221679687507 0.19549999999999992 1.5572221679687508 0.1839999999999999 Q 1.5727221679687509 0.17249999999999993 1.5812221679687508 0.15374999999999991 Q 1.5897221679687508 0.13499999999999993 1.5897221679687508 0.11399999999999993 Q 1.5897221679687508 0.09249999999999992 1.5799721679687508 0.07424999999999993 Q 1.5702221679687507 0.05599999999999994 1.5539721679687508 0.0447499999999999 Q 1.5377221679687507 0.03349999999999992 1.517722167968751 0.03349999999999992 L 1.4047221679687507 0.03349999999999992 L 1.4047221679687507 0.19549999999999992 M 1.935479736328126 0.3264999999999999 L 1.935479736328126 0.35749999999999993 L 1.6969797363281258 0.35749999999999993 L 1.6969797363281258 0.0024999999999999467 L 1.9309797363281258 0.0024999999999999467 L 1.9309797363281258 0.03349999999999992 L 1.7319797363281257 0.03349999999999992 L 1.7319797363281257 0.16149999999999992 L 1.9054797363281257 0.16149999999999992 L 1.9054797363281257 0.19099999999999992 L 1.7319797363281257 0.19099999999999992 L 1.7319797363281257 0.3264999999999999 L 1.935479736328126 0.3264999999999999 M 2.1122341308593757 0.0024999999999999467 L 2.141734130859376 0.0024999999999999467 L 2.2892341308593758 0.35749999999999993 L 2.252234130859376 0.35749999999999993 L 2.206234130859376 0.24649999999999994 L 2.046734130859376 0.24649999999999994 L 2.001234130859376 0.35749999999999993 L 1.9637341308593759 0.35749999999999993 L 2.1122341308593757 0.0024999999999999467 M 2.198234130859376 0.21899999999999992 L 2.1267341308593757 0.04349999999999993 L 2.054234130859376 0.21899999999999992 L 2.198234130859376 0.21899999999999992 M 2.340996826171876 0.35749999999999993 L 2.340996826171876 0.0024999999999999467 L 2.4614968261718757 0.0024999999999999467 Q 2.5179968261718755 0.0024999999999999467 2.555746826171876 0.02624999999999994 Q 2.593496826171876 0.04999999999999993 2.6124968261718755 0.09024999999999994 Q 2.6314968261718756 0.13049999999999992 2.6314968261718756 0.17949999999999994 Q 2.6314968261718756 0.23349999999999993 2.6107468261718756 0.2734999999999999 Q 2.5899968261718755 0.31349999999999995 2.551746826171876 0.3354999999999999 Q 2.5134968261718758 0.35749999999999993 2.4614968261718757 0.35749999999999993 L 2.340996826171876 0.35749999999999993 M 2.5964968261718755 0.17949999999999994 Q 2.5964968261718755 0.13699999999999993 2.580746826171876 0.10399999999999993 Q 2.5649968261718756 0.0709999999999999 2.534996826171876 0.05224999999999991 Q 2.5049968261718756 0.03349999999999992 2.4614968261718757 0.03349999999999992 L 2.3759968261718756 0.03349999999999992 L 2.3759968261718756 0.3264999999999999 L 2.4614968261718757 0.3264999999999999 Q 2.5054968261718757 0.3264999999999999 2.5354968261718756 0.30699999999999994 Q 2.565496826171876 0.2874999999999999 2.5809968261718756 0.2542499999999999 Q 2.5964968261718755 0.22099999999999992 2.5964968261718755 0.17949999999999994 M 2.699260253906251 0.35749999999999993 L 2.699260253906251 0.0024999999999999467 L 2.7342602539062506 0.0024999999999999467 L 2.7342602539062506 0.35749999999999993 L 2.699260253906251 0.35749999999999993 M 2.8590031738281256 0.06699999999999995 L 2.8590031738281256 0.35749999999999993 L 2.824003173828126 0.35749999999999993 L 2.824003173828126 0.0024999999999999467 L 2.853003173828126 0.0024999999999999467 L 3.086003173828126 0.29849999999999993 L 3.086003173828126 0.002999999999999947 L 3.1210031738281256 0.002999999999999947 L 3.1210031738281256 0.35749999999999993 L 3.088503173828126 0.35749999999999993 L 2.8590031738281256 0.06699999999999995 M 3.3532395019531256 0.35999999999999993 Q 3.3177395019531257 0.35999999999999993 3.2872395019531258 0.34474999999999995 Q 3.256739501953126 0.3294999999999999 3.234239501953126 0.30349999999999994 Q 3.211739501953126 0.2774999999999999 3.199489501953126 0.24549999999999994 Q 3.1872395019531257 0.2134999999999999 3.1872395019531257 0.17949999999999994 Q 3.1872395019531257 0.14349999999999993 3.199489501953126 0.11124999999999993 Q 3.211739501953126 0.0789999999999999 3.2337395019531257 0.05399999999999994 Q 3.255739501953126 0.028999999999999915 3.2857395019531257 0.014499999999999902 Q 3.315739501953126 -5.551115123125783e-17 3.351239501953126 -5.551115123125783e-17 Q 3.4037395019531256 -5.551115123125783e-17 3.436739501953126 0.021499999999999908 Q 3.469739501953126 0.04299999999999993 3.4867395019531258 0.0774999999999999 L 3.4597395019531256 0.09549999999999992 Q 3.4427395019531257 0.062499999999999944 3.4142395019531255 0.04699999999999993 Q 3.385739501953126 0.03149999999999992 3.3507395019531256 0.03149999999999992 Q 3.3212395019531256 0.03149999999999992 3.297489501953126 0.04399999999999993 Q 3.2737395019531257 0.05649999999999994 3.256739501953126 0.0774999999999999 Q 3.239739501953126 0.09849999999999992 3.230989501953126 0.12499999999999992 Q 3.222239501953126 0.1514999999999999 3.222239501953126 0.17999999999999994 Q 3.222239501953126 0.20999999999999994 3.2322395019531256 0.23674999999999993 Q 3.242239501953126 0.26349999999999996 3.260739501953126 0.28424999999999995 Q 3.2792395019531257 0.30499999999999994 3.3034895019531256 0.3167499999999999 Q 3.327739501953126 0.3284999999999999 3.355739501953126 0.3284999999999999 Q 3.3882395019531257 0.3284999999999999 3.4172395019531256 0.3122499999999999 Q 3.4462395019531256 0.29599999999999993 3.472739501953126 0.2619999999999999 L 3.472739501953126 0.29899999999999993 Q 3.4222395019531255 0.35999999999999993 3.3532395019531256 0.35999999999999993 M 3.467239501953126 0.20999999999999994 L 3.3882395019531257 0.20999999999999994 L 3.3882395019531257 0.1829999999999999 L 3.496739501953126 0.1829999999999999 L 3.496739501953126 0.35749999999999993 L 3.467239501953126 0.35749999999999993 L 3.467239501953126 0.20999999999999994 M 3.977743652343751 0.0024999999999999467 L 3.977743652343751 0.35749999999999993 L 3.943243652343751 0.35749999999999993 L 3.943243652343751 0.19149999999999992 L 3.7327436523437507 0.19149999999999992 L 3.7327436523437507 0.35749999999999993 L 3.697743652343751 0.35749999999999993 L 3.697743652343751 0.0024999999999999467 L 3.7327436523437507 0.0024999999999999467 L 3.7327436523437507 0.16049999999999992 L 3.943243652343751 0.16049999999999992 L 3.943243652343751 0.0024999999999999467 L 3.977743652343751 0.0024999999999999467 M 4.305981689453126 0.3264999999999999 L 4.305981689453126 0.35749999999999993 L 4.067481689453126 0.35749999999999993 L 4.067481689453126 0.0024999999999999467 L 4.301481689453126 0.0024999999999999467 L 4.301481689453126 0.03349999999999992 L 4.102481689453126 0.03349999999999992 L 4.102481689453126 0.16149999999999992 L 4.2759816894531255 0.16149999999999992 L 4.2759816894531255 0.19099999999999992 L 4.102481689453126 0.19099999999999992 L 4.102481689453126 0.3264999999999999 L 4.305981689453126 0.3264999999999999 M 4.482736083984375 0.0024999999999999467 L 4.512236083984376 0.0024999999999999467 L 4.6597360839843756 0.35749999999999993 L 4.622736083984376 0.35749999999999993 L 4.576736083984375 0.24649999999999994 L 4.417236083984376 0.24649999999999994 L 4.371736083984375 0.35749999999999993 L 4.334236083984376 0.35749999999999993 L 4.482736083984375 0.0024999999999999467 M 4.568736083984375 0.21899999999999992 L 4.497236083984375 0.04349999999999993 L 4.424736083984375 0.21899999999999992 L 4.568736083984375 0.21899999999999992 M 4.711498779296876 0.35749999999999993 L 4.711498779296876 0.0024999999999999467 L 4.746498779296876 0.0024999999999999467 L 4.746498779296876 0.3264999999999999 L 4.951498779296876 0.3264999999999999 L 4.951498779296876 0.35749999999999993 L 4.711498779296876 0.35749999999999993 M 5.1997529296875005 0.03349999999999992 L 5.0732529296875 0.03349999999999992 L 5.0732529296875 0.35749999999999993 L 5.0382529296875 0.35749999999999993 L 5.0382529296875 0.03349999999999992 L 4.9117529296875 0.03349999999999992 L 4.9117529296875 0.0024999999999999467 L 5.1997529296875005 0.0024999999999999467 L 5.1997529296875005 0.03349999999999992 M 5.533495605468751 0.0024999999999999467 L 5.533495605468751 0.35749999999999993 L 5.4989956054687505 0.35749999999999993 L 5.4989956054687505 0.19149999999999992 L 5.288495605468751 0.19149999999999992 L 5.288495605468751 0.35749999999999993 L 5.253495605468751 0.35749999999999993 L 5.253495605468751 0.0024999999999999467 L 5.288495605468751 0.0024999999999999467 L 5.288495605468751 0.16049999999999992 L 5.4989956054687505 0.16049999999999992 L 5.4989956054687505 0.0024999999999999467 L 5.533495605468751 0.0024999999999999467" fill="#000000" fill-rule="nonzero"></path></g><g transform="matrix(1,0,0,1,0,0)"><g clip-path="url(#SvgjsClipPath49388)"><g clip-path="url(#SvgjsClipPath49383738ce032-1dc6-494f-bab2-335b699dd1f7)"><path d=" M 0.7677608221274566 -1.0209595410124388 L 0.7911678162541926 -1.1482678051096604 C 0.8244580810730164 -1.3180777941729325 0.8665253162743773 -1.4860486560075836 0.9172003118820833 -1.6515047496926938 C 0.9687698634398412 -1.8173361334170672 1.028951455196473 -1.980365671848811 1.0974999694526788 -2.1399293508897297 C 1.1050068597090494 -2.1574946683411316 1.1126458031929445 -2.1750040310350993 1.1204167999043644 -2.1924574389716347 C 1.1206316661728832 -2.1912891036365654 1.120873390724966 -2.190127482872387 1.1210882569934852 -2.1889524329664263 C 1.2030087296300505 -1.727771465656751 1.066396853392223 -1.2546758649870227 0.7512429777350953 -0.9081547500402158 Z" fill="#8fb819" transform="matrix(1,0,0,1,0,0)" fill-rule="nonzero"></path></g><g clip-path="url(#SvgjsClipPath49383738ce032-1dc6-494f-bab2-335b699dd1f7)"><path d=" M -0.6178915998357903 -0.36593972143373765 C 0.3021523328187208 -0.25497472288570533 1.1379686882139712 -0.9108674366802623 1.2489135430493297 -1.8309113693347734 C 1.355863228204422 -2.7176846032233684 0.7503700835192391 -3.526085365669835 -0.11735391275101237 -3.682749733703399 C -0.059568315661313154 -3.681536634562388 -0.0013507478442800203 -3.6774317935575653 0.05729879070008681 -3.670435210688931 C 1.0155284880128723 -3.5548640165095344 1.698695788767499 -2.684353473319433 1.5831245945881014 -1.7260834885813015 C 1.4675534004087039 -0.7678135038431697 0.5970361426477113 -0.0846797759429978 -0.3612271275195287 -0.20025097012239668 C -0.6855665821006307 -0.23887687313040695 -0.9924754485030508 -0.36805034275960713 -1.2468185969312717 -0.5729835148640023 C -1.0530653365526756 -0.46275374077771714 -0.8392349425409883 -0.3923604262414888 -0.6178915998357892 -0.36593972143373765 Z" fill="#197f0f" transform="matrix(1,0,0,1,0,0)" fill-rule="nonzero"></path></g><g clip-path="url(#SvgjsClipPath49383738ce032-1dc6-494f-bab2-335b699dd1f7)"><path d=" M -0.7522367342269927 -0.8752399235315362 L -0.6731055162741567 -0.9766299439887116 C -0.6598240950513571 -0.9934633732129594 -0.6469186897984632 -1.0106258164108763 -0.6333216837437762 -1.027224235653931 L -0.591644342222075 -1.0762406031597185 L -0.5499468569876991 -1.1253308309453085 L -0.5290913997996214 -1.1498927312653313 C -0.5221821063525722 -1.1581315097488383 -0.5152056671966121 -1.1663031425234336 -0.5078062100745053 -1.174065186473665 L -0.4204227844963815 -1.2688883565992426 L -0.39856014167462206 -1.2926243646996483 C -0.39128826139944817 -1.3005542729221595 -0.3834657863111961 -1.3079335863315915 -0.375945466913048 -1.3156217700020196 L -0.33038038884534005 -1.361334568629335 C -0.2998895224283835 -1.3917045727702488 -0.27007011310054874 -1.4228668962763251 -0.23802818080772403 -1.4516656908286976 L -0.1433124438164055 -1.539747431779507 L -0.04538714193909121 -1.6243913124340206 C 0.08685313674122686 -1.7359998653187942 0.2247874646616015 -1.8406815874490223 0.3678611235600291 -1.9380154896203545 C 0.511868544525073 -2.035079930773531 0.6608387809395351 -2.1245701000247963 0.814165221556556 -2.2061215907352283 C 0.8837751779856722 -2.243320313472502 0.9544997531827206 -2.2785046649424086 1.0259226437524542 -2.312346102234076 C 0.9849369030325479 -2.2766335378540603 0.9445107098869074 -2.2402651837170042 0.9046440643155338 -2.2032410398229074 C 0.774245881773117 -2.081985198820023 0.6502607818967874 -1.9540107012976369 0.5331940026141557 -1.8198390419351873 C 0.4162974632648202 -1.6847247720088692 0.30648973710485516 -1.54363657980105 0.20421360179962056 -1.397143375192123 L 0.12863439184823333 -1.2861246600769625 L 0.05705706614800321 -1.1723664000381895 C 0.0325623115368916 -1.1347648030474482 0.010894391270977355 -1.0955248507592543 -0.01167328149435809 -1.0567414892916616 L -0.04531999623017913 -0.998425441101559 C -0.050839373502748364 -0.988655740454857 -0.05673476674522537 -0.979080762364001 -0.061945273756800034 -0.9691431974450193 L -0.07763722592954303 -0.939357360971639 L -0.14039160547873197 -0.8200595799476229 C -0.1457632621916949 -0.8101824461666629 -0.15063804065870845 -0.8000568732627276 -0.15540538599146392 -0.7898842983625536 L -0.16989542997468177 -0.7594471485127277 L -0.19888223251200743 -0.6985258468168363 L -0.2278690350493333 -0.6375508285538158 C -0.23715528659186913 -0.6170579581938616 -0.24564250419835032 -0.5962226447184573 -0.2545661689127592 -0.5755551955153333 L -0.3074971312481183 -0.45119462803934995 C -0.31258006141275896 -0.4383899413498238 -0.3175085564469027 -0.4255113943804951 -0.32248405347728526 -0.4126597056947312 C -0.5480841980256961 -0.40536282761597375 -0.7724349982052269 -0.44892170057487135 -0.9789139329431384 -0.5401089757806687 C -0.9082095014587633 -0.6548027993636167 -0.832650435220048 -0.7665131152805724 -0.7522367342269927 -0.8752399235315362 Z" fill="#90ba1a" transform="matrix(1,0,0,1,0,0)" fill-rule="nonzero"></path></g><g clip-path="url(#SvgjsClipPath49383738ce032-1dc6-494f-bab2-335b699dd1f7)"><path d=" M -0.045447573077112 -0.4915290553828111 C -0.03811526166391732 -0.5116727680564215 -0.031226111929541833 -0.5320246324276594 -0.02353121368822242 -0.5520474828252295 L 0.0006748143745669566 -0.6116728723391183 L 0.024887557008246963 -0.6713586929910274 L 0.03697378461241385 -0.7012183897442101 C 0.04094209600911469 -0.7112096712303222 0.045031269681858 -0.7211539507201947 0.049597177887875876 -0.7308565056579832 L 0.10285715419690455 -0.8482943505451361 L 0.11617886284505241 -0.8776840273359339 C 0.12059705049146485 -0.8875007299788735 0.12570683893967072 -0.8969548457936889 0.13044061141796948 -0.9066171133061305 L 0.15938041195905672 -0.9643019918324609 C 0.17881238011820022 -1.0027093373301459 0.19736473949059596 -1.0416471339282367 0.2187640769208623 -1.0790338646504578 L 0.2810887239330149 -1.1923691067230857 L 0.3475629757559313 -1.3034415384053766 C 0.438149040754664 -1.4508793346419298 0.5363133610167929 -1.5935246426721532 0.6416611807906427 -1.7308038319178047 C 0.7398729710259875 -1.8578077021346333 0.8443248358095554 -1.9799748431194937 0.9550167751413448 -2.0973052548723876 C 0.8926384115620631 -1.9665054139117395 0.8357682343038653 -1.8330600320199573 0.7844062433667507 -1.6969691091970418 C 0.722157178639421 -1.529496999004352 0.6686394903939983 -1.3589078268949542 0.6240690050556987 -1.185889545813076 L 0.5921009330426779 -1.0554522916805515 L 0.5648397752243912 -0.9238467022129586 C 0.5550432162941255 -0.8800542708605281 0.5484696513916363 -0.8357045301241284 0.5408956154263589 -0.791482366234662 L 0.5297695714596335 -0.7250752601206569 C 0.5287288129714975 -0.7184882660763865 0.5275873359199925 -0.7119012720321152 0.5264928608647261 -0.7053142779878452 C 0.3513061298446447 -0.5765098457755506 0.15030253842989794 -0.48717288008772774 -0.06269730569661469 -0.4434460132309006 Z" fill="#187e0e" transform="matrix(1,0,0,1,0,0)" fill-rule="nonzero"></path></g><g clip-path="url(#SvgjsClipPath49383738ce032-1dc6-494f-bab2-335b699dd1f7)"><path d=" M -0.34271505557248094 -2.897299374563067 L -0.32300779000679825 -3.393432303143215 Z" fill="#f09d0f" transform="matrix(1,0,0,1,0,0)" fill-rule="nonzero"></path></g><g clip-path="url(#SvgjsClipPath49383738ce032-1dc6-494f-bab2-335b699dd1f7)"><path d=" M -0.346434927846208 -2.897447095122673 C -0.35067853664944804 -2.939023718081006 -0.3534785127110802 -2.9805466244722094 -0.3564060656196453 -3.0220695308634125 L -0.360085650468025 -3.0843337467375447 L -0.3626506165484642 -3.1465509606154374 C -0.3634160776300621 -3.1672855555274744 -0.3655580257443556 -3.188073867006641 -0.3672635267507218 -3.2088487493440256 C -0.3688809039178602 -3.229538571385016 -0.36817821721849797 -3.2503444038488136 -0.36516858063266455 -3.2708779552369656 C -0.36215578852552555 -3.2916925173961396 -0.3576840617218635 -3.3122696405854906 -0.35178644084649724 -3.332457284880193 C -0.34578878462700313 -3.353713026094123 -0.3373812960208322 -3.3742136012056334 -0.3267276622805242 -3.3935598799901467 L -0.3192812031621788 -3.3932644388709345 C -0.3101942861260709 -3.373127489881546 -0.3034359585095574 -3.3520189799593028 -0.29913749048856864 -3.3303489096203562 C -0.29486052808753294 -3.309757427061745 -0.29203569050455425 -3.2888908746219543 -0.29068384573654305 -3.267903400332163 C -0.28931291551428595 -3.2471971889115077 -0.2902633455208983 -3.2264025911601926 -0.2935173946526308 -3.205907767293679 C -0.2968746800982327 -3.1853343220830315 -0.3006482689390888 -3.164781020585057 -0.30305879988903217 -3.1441672879490605 L -0.3105455464327236 -3.08235294832464 L -0.31915362631524724 -3.0205788961255653 C -0.3253578898187188 -2.979418576562487 -0.331448005617041 -2.938251542428518 -0.33897503958608066 -2.8971382248616773 Z" fill="#f09d0f" transform="matrix(1,0,0,1,0,0)" fill-rule="nonzero"></path></g><g clip-path="url(#SvgjsClipPath49383738ce032-1dc6-494f-bab2-335b699dd1f7)"><path d=" M -0.5463679907026886 -2.859489625874699 L -0.6975398397472482 -3.3324371411675213 Z" fill="#f09d0f" transform="matrix(1,0,0,1,0,0)" fill-rule="nonzero"></path></g><g clip-path="url(#SvgjsClipPath49383738ce032-1dc6-494f-bab2-335b699dd1f7)"><path d=" M -0.5499199987041352 -2.8583548633940854 C -0.5681299149610786 -2.8959564603848267 -0.5849633441853264 -2.934034791908842 -0.601910921114725 -2.9720526922948376 L -0.6266675439905928 -3.02930112371324 L -0.6503565500947595 -3.0868852836762026 C -0.6581655960412296 -3.1061091001377195 -0.667290697882376 -3.1249166132039803 -0.6759927817573759 -3.143851703117175 C -0.6845910085891738 -3.162741126436333 -0.6910480913440358 -3.182533537754688 -0.6952434565024563 -3.2028593521090727 C -0.6995347185187688 -3.223449511575132 -0.7023708046729344 -3.244316284703088 -0.7037306741089376 -3.2653048613972677 C -0.7053667642169147 -3.287332749851267 -0.7044814172652261 -3.3094754348083906 -0.7010918477486937 -3.3313023786869076 L -0.6939878317458008 -3.3335719036481337 C -0.6785664032971689 -3.317757545872869 -0.6650023007903317 -3.3002330228034973 -0.6535594004098636 -3.2813392566854604 C -0.6424954771301117 -3.2634513014013096 -0.6327016758988401 -3.244808301531747 -0.62425029846976 -3.22554788715045 C -0.6158810351631484 -3.206558009162033 -0.6096627123915395 -3.1866913575255364 -0.6057113682391461 -3.1663186573191417 C -0.6018169171222477 -3.145839216100971 -0.5983253402588224 -3.1252321980358664 -0.5935579949260681 -3.1050414833660174 L -0.5794573960545404 -3.044388764505774 L -0.5664244139547137 -2.9834003171009713 C -0.5581722063294243 -2.9425958697951264 -0.549812565569876 -2.901831709914629 -0.5428294118430244 -2.8606243883553124 Z" fill="#f09d0f" transform="matrix(1,0,0,1,0,0)" fill-rule="nonzero"></path></g><g clip-path="url(#SvgjsClipPath49383738ce032-1dc6-494f-bab2-335b699dd1f7)"><path d=" M -0.7248144267073174 -2.7543058728639935 L -1.02862861582161 -3.147027695148714 Z" fill="#f09d0f" transform="matrix(1,0,0,1,0,0)" fill-rule="nonzero"></path></g><g clip-path="url(#SvgjsClipPath49383738ce032-1dc6-494f-bab2-335b699dd1f7)"><path d=" M -0.7277621233285556 -2.7520229187609844 C -0.7577426823577798 -2.781150727287026 -0.7865750497646077 -2.811151430028924 -0.8155081357348044 -2.84108498706191 L -0.8583470980206839 -2.886415055148426 L -0.9002997369489254 -2.9324232948949533 C -0.9142190424063901 -2.947813091377592 -0.9292261083482305 -2.96236356649883 -0.9438773020328365 -2.9771826244557174 C -0.9584189719281614 -2.9919901603914503 -0.9712566557999015 -3.008379603467705 -0.9821503561126982 -3.026044556831007 C -0.9932207352249172 -3.0439275330634166 -1.003021269998133 -3.0625660500874785 -1.0114796017654764 -3.081822497224235 C -1.0205558011990026 -3.1019640140432956 -1.027298522477749 -3.123077540212494 -1.0315763124428479 -3.1447514556165954 L -1.0256809192003717 -3.1493106492517238 C -1.0057777277853348 -3.139726604750936 -0.9870363640386233 -3.127896949620033 -0.9698224039564487 -3.1140524375020133 C -0.9533068431028626 -3.1010273131248196 -0.9377265140247102 -3.086858278256078 -0.9231964236879313 -3.0716499223240614 C -0.9088383380336691 -3.0566649386725318 -0.896199232555898 -3.0401228449921627 -0.885514251846495 -3.0223313991281704 C -0.8748515132712646 -3.00442363856133 -0.8645446469532664 -2.9862472951588415 -0.8531433055800032 -2.968910273117754 L -0.8191407185869479 -2.9167380572931014 L -0.7860311695224221 -2.8638876698084372 C -0.7643296764020523 -2.82836758979397 -0.7425274647183135 -2.792914655488414 -0.7218667300860796 -2.756582112396112 Z" fill="#f09d0f" transform="matrix(1,0,0,1,0,0)" fill-rule="nonzero"></path></g><g clip-path="url(#SvgjsClipPath49383738ce032-1dc6-494f-bab2-335b699dd1f7)"><path d=" M -0.8565274493091687 -2.594431939944434 L -1.276335850569005 -2.859556771583611 Z" fill="#f09d0f" transform="matrix(1,0,0,1,0,0)" fill-rule="nonzero"></path></g><g clip-path="url(#SvgjsClipPath49383738ce032-1dc6-494f-bab2-335b699dd1f7)"><path d=" M -0.8585082477220733 -2.5912828061964595 C -0.8966335812423275 -2.608391532827246 -0.933993453680985 -2.6267290259311236 -0.9714204718285545 -2.6449590859007417 L -1.0271514102255448 -2.6728984153790396 L -1.0823116100967831 -2.701771070211215 C -1.100655817771551 -2.711473625149005 -1.1197319136734603 -2.7200078447517244 -1.1385729995941782 -2.728924794895242 C -1.157300648225353 -2.737866388807787 -1.1749691415639003 -2.748875132649574 -1.1912488082356718 -2.761745617411446 C -1.207767528023478 -2.7747647136540974 -1.2233522769943739 -2.788926956024426 -1.2378882176459725 -2.8041279888767248 C -1.2532988302917534 -2.8199548249100115 -1.2668536524282479 -2.837488010997486 -1.2782897906983457 -2.856387494122962 L -1.2743080501598616 -2.8626924761898023 C -1.2523277708960265 -2.8604940082584576 -1.2306712086533311 -2.855787823037924 -1.2097608801827207 -2.8486657375980777 C -1.1897860572822663 -2.842076851842712 -1.1702993093428826 -2.83409143607803 -1.1514448319926156 -2.8247685797962836 C -1.132827266221511 -2.8155999980783646 -1.1152939048338235 -2.8043772954714496 -1.099171897604596 -2.791309873045416 C -1.0830233546112522 -2.7781291703859834 -1.0671165361699906 -2.764572451756644 -1.0504778295015877 -2.7521840684623724 L -1.0006825717724204 -2.7147906231692596 L -0.9514916254234629 -2.676450423380486 C -0.9189461003137985 -2.6504918923150926 -0.8863602877787871 -2.6246340798130676 -0.8544996489000254 -2.597560929979734 Z" fill="#f09d0f" transform="matrix(1,0,0,1,0,0)" fill-rule="nonzero"></path></g><g clip-path="url(#SvgjsClipPath49383738ce032-1dc6-494f-bab2-335b699dd1f7)"><path d=" M -0.9256069546378721 -2.3991520747155577 L -1.4107817035235761 -2.5047051291252793 Z" fill="#f09d0f" transform="matrix(1,0,0,1,0,0)" fill-rule="nonzero"></path></g><g clip-path="url(#SvgjsClipPath49383738ce032-1dc6-494f-bab2-335b699dd1f7)"><path d=" M -0.9263992740030332 -2.3955127772925247 C -0.968083330095626 -2.3985477633353494 -1.009458515927223 -2.4029995238362174 -1.0508605600423837 -2.407330422061044 L -1.1128159056555207 -2.414521727485523 L -1.1745295267165738 -2.4228007933943765 C -1.1950828282145485 -2.4256410568813562 -1.215931570831736 -2.4271451207609855 -1.236686309456446 -2.4290722026067604 C -1.2573431781873556 -2.4310746357479465 -1.277711690133576 -2.435378508628223 -1.297412888596491 -2.4419037475798504 C -1.3173884365515027 -2.448488583449672 -1.3368772333452181 -2.4564671882618363 -1.3557356513574854 -2.465780761668971 C -1.3756302750134366 -2.475371649533974 -1.394364456116507 -2.4872032896438023 -1.4115740228887375 -2.5010456879895733 L -1.4099893841584137 -2.5083309974065293 C -1.3885821810653194 -2.5137829977136485 -1.3666215171755842 -2.5167680079366583 -1.34453574711096 -2.5172278038373745 C -1.3235130907041555 -2.5178661019300153 -1.3024715619581912 -2.5170269537373313 -1.2815665012932513 -2.514716554324064 C -1.2609330866160606 -2.512468837666308 -1.24061596913829 -2.5079193889017484 -1.220994357283704 -2.501153121123833 C -1.201320664572477 -2.494290829673022 -1.1817342612828354 -2.486992091114284 -1.161859131444873 -2.481009408450222 L -1.102280743927222 -2.4628800670439714 L -1.042937366390764 -2.443676394295129 C -1.0034825478340517 -2.430415116785002 -0.9639941564228827 -2.4172679869800247 -0.9248146352727095 -2.4027175118587865 Z" fill="#f09d0f" transform="matrix(1,0,0,1,0,0)" fill-rule="nonzero"></path></g><g clip-path="url(#SvgjsClipPath49383738ce032-1dc6-494f-bab2-335b699dd1f7)"><path d=" M -0.9237403039301176 -2.1920209918637066 L -1.4157504859830667 -2.1252714426342507 Z" fill="#f09d0f" transform="matrix(1,0,0,1,0,0)" fill-rule="nonzero"></path></g><g clip-path="url(#SvgjsClipPath49383738ce032-1dc6-494f-bab2-335b699dd1f7)"><path d=" M -0.9232367111132772 -2.188327977873545 C -0.9634435616098055 -2.176913207358498 -1.003851849233068 -2.166955498726843 -1.0442399931436581 -2.1568702132482556 L -1.1049128557165742 -2.142433885832168 L -1.1657401534199883 -2.1291054626131287 C -1.186024872082314 -2.1247477061047375 -1.2061282973305785 -2.1190336062763233 -1.2262854391459714 -2.1137425244140546 C -1.2463805411495616 -2.1085543299783582 -1.2669921980514078 -2.1056265378048007 -1.2877371919422687 -2.10501358225549 C -1.3087614515702737 -2.1043669594374497 -1.3298051697361188 -2.105197130641348 -1.3507131523308678 -2.1074979734852355 C -1.3726914624471613 -2.1097142694637485 -1.3943450475107908 -2.1144315610912194 -1.4152536077371172 -2.121558284931416 L -1.416254078799906 -2.1289443129117402 C -1.3980007852341287 -2.1413880493825843 -1.3783856995548158 -2.1517058502797077 -1.3577903100501956 -2.159697047593453 C -1.3382533854356145 -2.1674882107920075 -1.3181921193624409 -2.1738940842557035 -1.2977553317119437 -2.17886714748784 C -1.2776017053927244 -2.1838127347500933 -1.256958091816601 -2.1864883416591523 -1.2362095749231703 -2.18684405770659 C -1.2153944051604395 -2.1871260696840205 -1.194465087692558 -2.186964919982632 -1.173764065634977 -2.1881869718848312 L -1.1115871391824312 -2.191544257330433 L -1.049262492170278 -2.1937936385789865 C -1.0076321526448144 -2.1948276824962316 -0.9660488151155905 -2.195982588689519 -0.924250611317848 -2.195707291282979 Z" fill="#f09d0f" transform="matrix(1,0,0,1,0,0)" fill-rule="nonzero"></path></g><g clip-path="url(#SvgjsClipPath49383738ce032-1dc6-494f-bab2-335b699dd1f7)"><path d=" M -0.8511356488835321 -1.9980168951041588 L -1.2906513157090511 -1.7670222273049696 Z" fill="#f09d0f" transform="matrix(1,0,0,1,0,0)" fill-rule="nonzero"></path></g><g clip-path="url(#SvgjsClipPath49383738ce032-1dc6-494f-bab2-335b699dd1f7)"><path d=" M -0.8494032895936005 -1.9947200407965775 C -0.8832917288815062 -1.970258859039922 -0.9178449106876397 -1.947046587469031 -0.9523443759266442 -1.9237805993310104 L -1.0044225877588198 -1.8894557129351768 L -1.0570245361205097 -1.8561312976021336 C -1.0745965681427891 -1.8450992576278855 -1.0915307159304046 -1.83284516575144 -1.1086663008447566 -1.8209872335575734 C -1.1257773778499243 -1.8092417427609406 -1.1441484979814787 -1.7994469650911926 -1.1634370556043052 -1.7917855647517291 C -1.1829697917400708 -1.783986519775315 -1.2030263583411438 -1.777569495446076 -1.2234586048007732 -1.7725818920028862 C -1.2448699917549662 -1.7671451686181396 -1.2668326609540157 -1.7641737089121652 -1.2889189564191195 -1.7637253729973885 L -1.2923836749989808 -1.7703190816125502 C -1.2794872894722162 -1.788252964942519 -1.2645851219744033 -1.8046554867190223 -1.2479667885536678 -1.8192078722714036 C -1.2322721662409577 -1.833209842272691 -1.2156125300961138 -1.8460910505026646 -1.1981110996864823 -1.8577562237578045 C -1.1808619509567322 -1.869298060331256 -1.1623759686654398 -1.878874375718996 -1.1429979018114813 -1.8863065791872016 C -1.1235256462269907 -1.8936926071675264 -1.1038183806613082 -1.9006959046070515 -1.0847624284720725 -1.9089145393778841 L -1.0274871387701046 -1.9333354337091915 L -0.9696813979677328 -1.9567625715486017 C -0.9309316093545966 -1.9719710746171775 -0.8922355373085895 -1.9872870108200136 -0.8528478644607883 -2.0013204639826285 Z" fill="#f09d0f" transform="matrix(1,0,0,1,0,0)" fill-rule="nonzero"></path></g><g clip-path="url(#SvgjsClipPath49383738ce032-1dc6-494f-bab2-335b699dd1f7)"><path d=" M 0.24908707906553706 -2.409761096723659 L 0.7411039756893778 -2.476503931382224 Z" fill="#f09d0f" transform="matrix(1,0,0,1,0,0)" fill-rule="nonzero"></path></g><g clip-path="url(#SvgjsClipPath49383738ce032-1dc6-494f-bab2-335b699dd1f7)"><path d=" M 0.24859020081958905 -2.413454110713821 C 0.2887970513161169 -2.424868881228868 0.32916505151403275 -2.4348265898605232 0.369586768279079 -2.444911875339111 L 0.43025963085199526 -2.459348202755198 L 0.4910869285554089 -2.4726766259742377 C 0.5113783617886265 -2.477034382482629 0.5314750724659991 -2.482748482311043 0.5516389288522838 -2.4880395641733117 C 0.5717339430576038 -2.493228198761062 0.592345649512956 -2.49615599797347 0.6130906816485802 -2.4967685063318763 C 0.6341127065042664 -2.4974151239881657 0.6551541916188877 -2.4965849523638957 0.6760599274662897 -2.49428411510213 C 0.6980387527495091 -2.4920710636942514 0.7196927037870806 -2.487353692338375 0.740600382872538 -2.48022380365595 L 0.7416008539353276 -2.4728377756756257 C 0.7233499762296962 -2.460393987254233 0.7037371071098539 -2.450076167294564 0.6831437997565082 -2.4420850409939114 C 0.663606530193918 -2.4342948398906903 0.6435453326095499 -2.427888988296532 0.6231088214182561 -2.422914941099526 C 0.6029528445006489 -2.417969742448956 0.5823070507220296 -2.415294144869704 0.5615563500585921 -2.414938030880775 C 0.5407411802958599 -2.414656018903345 0.5198185773988693 -2.414817168604734 0.4991108407703979 -2.4135951167025347 L 0.43693391431785167 -2.410237831256933 L 0.374602552734808 -2.407981735437488 C 0.3329722132093449 -2.406947691520243 0.2913888756801204 -2.4057927853269563 0.24959738645326945 -2.406068082733496 Z" fill="#f09d0f" transform="matrix(1,0,0,1,0,0)" fill-rule="nonzero"></path></g><g clip-path="url(#SvgjsClipPath49383738ce032-1dc6-494f-bab2-335b699dd1f7)"><path d=" M 0.17648913858984328 -2.603758478912316 L 0.616004805415362 -2.8347598612823957 Z" fill="#f09d0f" transform="matrix(1,0,0,1,0,0)" fill-rule="nonzero"></path></g><g clip-path="url(#SvgjsClipPath49383738ce032-1dc6-494f-bab2-335b699dd1f7)"><path d=" M 0.17475677929991296 -2.607062047790788 C 0.20863850401692696 -2.631523229547443 0.24319840039395157 -2.654735501118334 0.27769786563295606 -2.678008203827246 L 0.3297760774651317 -2.7123263756521885 L 0.38237131125592994 -2.7456507909852315 C 0.39995005784910154 -2.7566828309594795 0.4168774910658255 -2.7689369228359255 0.43401979055106854 -2.780794855029792 C 0.45112933559244417 -2.792538943999659 0.4694980708201333 -2.802333650903192 0.48878383073972587 -2.8099965238356375 C 0.5083188562694338 -2.8177955757773674 0.5283776559062494 -2.8242125966902636 0.5488120945070867 -2.8292001965844795 C 0.570221198520483 -2.834636932533315 0.592181645828423 -2.837608396423259 0.6142657315545408 -2.838056715589977 L 0.6177371647052932 -2.8314630069748152 C 0.6048404173639319 -2.813527354994294 0.5899358126169678 -2.7971246302115493 0.57331356368909 -2.782574216315961 C 0.557621555578687 -2.7685691005375497 0.540961691761346 -2.7556877162715083 0.5234578748219019 -2.7440258648295606 C 0.5062102710475187 -2.732485439493232 0.48772667462830976 -2.7229091933649907 0.46835139151779415 -2.7154755094001635 C 0.44887913593330375 -2.7080894814198393 0.42916515579672976 -2.7010861839803137 0.4101159181783849 -2.692867549209481 L 0.35283391390552654 -2.6684466548781742 L 0.2950550313867182 -2.6450195170387625 C 0.25630524277358213 -2.6298110139701865 0.2176091707275749 -2.614501792338242 0.17822149787977426 -2.600461624604735 Z" fill="#f09d0f" transform="matrix(1,0,0,1,0,0)" fill-rule="nonzero"></path></g><g clip-path="url(#SvgjsClipPath49383738ce032-1dc6-494f-bab2-335b699dd1f7)"><path d=" M 0.041915708788338835 -2.7612285954528244 L 0.3759118940585924 -3.1286230563359245 Z" fill="#f09d0f" transform="matrix(1,0,0,1,0,0)" fill-rule="nonzero"></path></g><g clip-path="url(#SvgjsClipPath49383738ce032-1dc6-494f-bab2-335b699dd1f7)"><path d=" M 0.03915602015205444 -2.7637398449661346 C 0.0626570182712678 -2.7983131704849424 0.08717191659505175 -2.831926312366308 0.11162638378081646 -2.865613314527477 L 0.14882510651808434 -2.9156704405214007 L 0.18685643604586177 -2.964982249146401 C 0.19961412073914886 -2.9813590875500466 0.2113176178025169 -2.998662536736678 0.22336355798133622 -3.0156705448040975 C 0.23542535137037168 -3.032557701121059 0.24933702964736382 -3.048043648965094 0.2648394623763013 -3.0618399342520126 C 0.2805265003619555 -3.075850672740541 0.2971794269439356 -3.088740872580674 0.3146750075308151 -3.1004151440219787 C 0.33293654590756105 -3.1128462322019215 0.3525583864356805 -3.1231505144723712 0.37315891999319906 -3.1311275912783443 L 0.37867158269487833 -3.1261118068226152 C 0.37268581323264605 -3.104858116436864 0.36429190999521666 -3.084357708637453 0.35365309155425395 -3.0650092117126624 C 0.3436937196337504 -3.046481885514007 0.33244368019408554 -3.0286779240154535 0.3199862331057579 -3.011729091690962 C 0.3077226687260579 -2.9949929093621357 0.2936287628056591 -2.979678342366496 0.27796644846860596 -2.9660700096307764 C 0.262180492303385 -2.9524595744343056 0.2460655221644965 -2.9391512949279406 0.23096445223017947 -2.9249096900676976 L 0.18549337815494749 -2.8823728834719224 L 0.13919641186009835 -2.84058139424507 C 0.10798037178689213 -2.8130516535911347 0.07685833570616318 -2.7854144798029408 0.044661968282841746 -2.758764347935754 Z" fill="#f09d0f" transform="matrix(1,0,0,1,0,0)" fill-rule="nonzero"></path></g><g clip-path="url(#SvgjsClipPath49383738ce032-1dc6-494f-bab2-335b699dd1f7)"><path d=" M -0.1384040924949359 -2.86317592529397 L 0.049798615014612135 -3.322640582237255 Z" fill="#f09d0f" transform="matrix(1,0,0,1,0,0)" fill-rule="nonzero"></path></g><g clip-path="url(#SvgjsClipPath49383738ce032-1dc6-494f-bab2-335b699dd1f7)"><path d=" M -0.1418486673621231 -2.8645859851811233 C -0.13161566132392855 -2.9051084205095368 -0.12005317024927575 -2.945086975595764 -0.10859811230888239 -2.9851058181073373 L -0.09075749745095307 -3.04486549903905 L -0.07188955324667101 -3.1042021620046167 C -0.06551742547091943 -3.1239497149956468 -0.06042106616449572 -3.144221004516191 -0.05491511803370841 -3.164324429764454 C -0.04935980710090537 -3.1843189444248887 -0.04158523050294671 -3.2036292630085805 -0.03173641931727289 -3.221895160585634 C -0.021784616711411076 -3.240425344117274 -0.010543625399132228 -3.258233677060498 0.0019035808476564053 -3.2751887097491177 C 0.01481083103270242 -3.293116010974757 0.02972439207923072 -3.309509664107021 0.046354040147425835 -3.324050642124407 L 0.05324990445269173 -3.3212238077792104 C 0.05489902040883421 -3.2991949951773583 0.05402493014270049 -3.277049873228672 0.05064465094690451 -3.255219575918678 C 0.047618927753839024 -3.2344056264484715 0.04313145117682837 -3.213830546342879 0.03721550916449745 -3.19364696084634 C 0.031419851321096814 -3.1737182306674527 0.023413310905116225 -3.154500281477701 0.013345209646267842 -3.136351527431699 C 0.0031659201752034516 -3.1181617548874287 -0.0074162435493327905 -3.100146561186329 -0.016729353375433798 -3.081600916384825 L -0.044930551118489204 -3.026078129685461 L -0.07415236363700695 -2.970971646381353 C -0.09406106632942612 -2.93441752244964 -0.1138623358875861 -2.897782823667233 -0.1349930904822041 -2.861752436265034 Z" fill="#f09d0f" transform="matrix(1,0,0,1,0,0)" fill-rule="nonzero"></path></g><g clip-path="url(#SvgjsClipPath49383738ce032-1dc6-494f-bab2-335b699dd1f7)"><path d=" M -0.5292256912174447 -1.9462811263874342 C -0.38830027735286143 -2.0239015658897483 -0.2447360371280365 -2.0945858536614503 -0.1011919406158841 -2.156856784106473 C -0.03828088774590044 -2.1839299339398064 0.025691067324894012 -2.209848177579853 0.0907239245964988 -2.2346115150266117 C 0.0973419464681724 -2.2648277155259837 0.10068717822213791 -2.2956686812253917 0.10070177694082671 -2.326601136236102 C 0.10070177694082783 -2.4405893186132097 0.05542014780262883 -2.5499088418049976 -0.025181668931353096 -2.630510658538978 C -0.10578348566533369 -2.7111124752729596 -0.2151030088571222 -2.756394104411158 -0.3290911912342289 -2.756394104411158 C -0.44307875617936543 -2.7563941044250693 -0.5523975890759074 -2.711112260997078 -0.6329983396024349 -2.630510251241227 C -0.7135990901289625 -2.549908241485376 -0.7588792256714911 -2.4405887011673277 -0.7588774448383941 -2.3266011362361017 C -0.7588997467228331 -2.1670156274622414 -0.6704677538250693 -2.0205658143013734 -0.5292256912176418 -1.9462811263875375 Z" fill="#f09d0f" transform="matrix(1,0,0,1,0,0)" fill-rule="nonzero"></path></g><g clip-path="url(#SvgjsClipPath49383738ce032-1dc6-494f-bab2-335b699dd1f7)"><path d=" M -1.372548936869062 -1.2588500731168932 L -1.2759195471737503 -1.34368196175636 C -1.2597374313259497 -1.3577825606278888 -1.2438440420264703 -1.3722054589021946 -1.2274067724848028 -1.3859837583709433 L -1.1773227882073156 -1.426392045994207 L -1.1272119456462621 -1.4668473356137093 L -1.1021397379385083 -1.48709848142158 C -1.0938270991751973 -1.4939003417343684 -1.0854473147029753 -1.5006283417673547 -1.0767250871153018 -1.5068930364088482 L -0.9732065476856148 -1.5837681585422385 L -0.9473017331873519 -1.6030188332873188 C -0.9386802241630463 -1.6094581067719829 -0.929622268030812 -1.6152527814510922 -0.920799321879771 -1.621403328387435 L -0.8675124872871773 -1.657823160901323 C -0.8319252615637983 -1.6819956161096568 -0.7967946266610202 -1.7070409655338468 -0.7599450616100951 -1.7293669137470986 L -0.6504975560834754 -1.7982584110908486 L -0.5384985136181972 -1.8631614533252239 C -0.38777583705706586 -1.9481773109323708 -0.2327502423151533 -2.0253281555550533 -0.07404493050275907 -2.0943038416840136 C 0.08552555168819764 -2.1628331405163896 0.24855937297205966 -2.2229989699757917 0.41439309983608497 -2.274556497258382 C 0.4973784814804685 -2.3005284574655582 0.5812098990571466 -2.323942166163185 0.6655650531633384 -2.3455765135746436 C 0.6865749454819146 -2.351337615399296 0.7078668497779208 -2.3560042421686824 0.7289976043725395 -2.3611140306168883 L 0.7925845907122382 -2.3761882422676406 L 0.8564871618838239 -2.389859108602131 C 0.8777992098925045 -2.394391443953693 0.8990911141885112 -2.39911178729021 0.9205307390441246 -2.402992809265325 L 0.9847623241893795 -2.4152401865708804 C 1.0062019490449925 -2.419221927109364 1.0277355778930828 -2.4226262145512045 1.0492222047449344 -2.4263259431122575 L 1.0585151708583609 -2.4278971527007998 L 1.0585823165672725 -2.427695715574064 C 1.0425076338537311 -2.4216526017719806 1.0264195219984071 -2.4156094879698973 1.0105798492660576 -2.4090157793547347 C 0.9281652061474233 -2.376114381987837 0.8463817326925633 -2.3414201941929873 0.7656793051511863 -2.3042080423139364 C 0.603844751808807 -2.2299405735820423 0.4459945308553144 -2.147281564651392 0.29277207728370414 -2.0565679532754495 C 0.13941121883956376 -1.964906312740674 -0.009090859928488904 -1.865349855738626 -0.15213538996744203 -1.7582999997172966 L -0.2587023445817378 -1.676570242829564 L -0.36233503171657566 -1.590986322250282 C -0.39737837719776814 -1.5629597033503981 -0.43025963085199104 -1.5324822660752249 -0.4638459144497924 -1.502730002456301 L -0.5140776192868872 -1.457903527186625 C -0.5223835434793065 -1.4503563495049119 -0.5309849087909386 -1.4431314712259762 -0.539042393860383 -1.4353089961377243 L -0.5632752802067362 -1.4119355748654439 L -0.6602672567301738 -1.3183344566420647 C -0.668479176930116 -1.3106395584007453 -0.6762680791639127 -1.3025417859059543 -0.6839831211179056 -1.2943768677022494 L -0.7072893966812739 -1.2700164045089632 L -0.753908662378901 -1.2212551906970415 L -0.8005480717892015 -1.1724335457471002 C -0.815790147712234 -1.1558888430711738 -0.8303809102588193 -1.1387599727277142 -0.8453342596335296 -1.1219399726452486 L -0.9345776213485187 -1.0204425190538138 C -1.0302468274063874 -0.906053089351269 -1.1207256701653574 -0.7873573815171637 -1.2060141496254264 -0.6643553955515009 C -1.3572811444750155 -0.7647091563823389 -1.4893212191889211 -0.8913821181729795 -1.5958621355687121 -1.0383569941915458 C -1.5239446049433274 -1.114177928695018 -1.4495068720434434 -1.187675621670134 -1.372548936869062 -1.2588500731168932 Z" fill="#197f0f" transform="matrix(1,0,0,1,0,0)" fill-rule="nonzero"></path></g></g></g></g><defs><clipPath id="SvgjsClipPath49388"><path d=" M -1.5958755647104963 -3.682749733703399 h 3.1917511294209926 v 3.495249733703399 h -3.1917511294209926 Z"></path></clipPath><clipPath id="SvgjsClipPath49383738ce032-1dc6-494f-bab2-335b699dd1f7"><path d=" M -1.5958755647104965 -3.682749733703399 L 1.5958755647104963 -3.682749733703399 L 1.5958755647104963 -0.1875 L -1.595875564710497 -0.1875 Z"></path></clipPath></defs></svg>